<svg xmlns="http://www.w3.org/2000/svg" viewBox="0 0 800 450" font-family="system-ui, -apple-system, sans-serif">
  <rect width="800" height="450" fill="#ffffff" rx="12"/>
  <text x="400" y="35" text-anchor="middle" font-size="18" font-weight="bold" fill="#111827">Impacto da IA na Produtividade por Perfil</text>
  <text x="400" y="52" text-anchor="middle" font-size="12" fill="#6b7280">Dados de estudos controlados randomizados (2024–2025)</text>
  <line x1="180" y1="331.25" x2="720" y2="331.25" stroke="#e5e7eb" stroke-dasharray="4,4"/><text x="170" y="335.25" text-anchor="end" font-size="12" fill="#9ca3af">-20%</text><line x1="180" y1="292.5" x2="720" y2="292.5" stroke="#e5e7eb" stroke-dasharray="4,4"/><text x="170" y="296.5" text-anchor="end" font-size="12" fill="#9ca3af">-10%</text><line x1="180" y1="253.75" x2="720" y2="253.75" stroke="#e5e7eb" stroke-dasharray="0"/><text x="170" y="257.75" text-anchor="end" font-size="12" fill="#9ca3af">0%</text><line x1="180" y1="215" x2="720" y2="215" stroke="#e5e7eb" stroke-dasharray="4,4"/><text x="170" y="219" text-anchor="end" font-size="12" fill="#9ca3af">+10%</text><line x1="180" y1="176.25" x2="720" y2="176.25" stroke="#e5e7eb" stroke-dasharray="4,4"/><text x="170" y="180.25" text-anchor="end" font-size="12" fill="#9ca3af">+20%</text><line x1="180" y1="137.5" x2="720" y2="137.5" stroke="#e5e7eb" stroke-dasharray="4,4"/><text x="170" y="141.5" text-anchor="end" font-size="12" fill="#9ca3af">+30%</text><line x1="180" y1="98.75" x2="720" y2="98.75" stroke="#e5e7eb" stroke-dasharray="4,4"/><text x="170" y="102.75" text-anchor="end" font-size="12" fill="#9ca3af">+40%</text><line x1="180" y1="253.75" x2="720" y2="253.75" stroke="#374151" stroke-width="2"/>
  <rect x="211.66666666666666" y="110.375" width="70" height="143.375" fill="#22c55e" rx="4"/><text x="246.66666666666666" y="102.375" text-anchor="middle" font-size="14" font-weight="bold" fill="#22c55e">+37%</text><text x="246.66666666666666" y="390" text-anchor="middle" font-size="11" fill="#6b7280">Juniors</text><text x="246.66666666666666" y="406" text-anchor="middle" font-size="11" fill="#6b7280">(Multi-Co RCT)</text><rect x="313.33333333333337" y="153" width="70" height="100.75" fill="#3b82f6" rx="4"/><text x="348.33333333333337" y="145" text-anchor="middle" font-size="14" font-weight="bold" fill="#3b82f6">+26%</text><text x="348.33333333333337" y="390" text-anchor="middle" font-size="11" fill="#6b7280">Média Geral</text><text x="348.33333333333337" y="406" text-anchor="middle" font-size="11" fill="#6b7280">(Multi-Co RCT)</text><rect x="415" y="172.375" width="70" height="81.375" fill="#3b82f6" rx="4"/><text x="450" y="164.375" text-anchor="middle" font-size="14" font-weight="bold" fill="#3b82f6">+21%</text><text x="450" y="390" text-anchor="middle" font-size="11" fill="#6b7280">Google</text><text x="450" y="406" text-anchor="middle" font-size="11" fill="#6b7280">Internal RCT</text><rect x="516.6666666666667" y="207.25" width="70" height="46.5" fill="#f59e0b" rx="4"/><text x="551.6666666666667" y="199.25" text-anchor="middle" font-size="14" font-weight="bold" fill="#f59e0b">+12%</text><text x="551.6666666666667" y="390" text-anchor="middle" font-size="11" fill="#6b7280">Sêniores</text><text x="551.6666666666667" y="406" text-anchor="middle" font-size="11" fill="#6b7280">(Multi-Co RCT)</text><rect x="618.3333333333334" y="253.75" width="70" height="73.625" fill="#ef4444" rx="4"/><text x="653.3333333333334" y="345.375" text-anchor="middle" font-size="14" font-weight="bold" fill="#ef4444">-19%</text><text x="653.3333333333334" y="390" text-anchor="middle" font-size="11" fill="#6b7280">Sêniores</text><text x="653.3333333333334" y="406" text-anchor="middle" font-size="11" fill="#6b7280">(METR RCT)</text>
</svg>