<svg xmlns="http://www.w3.org/2000/svg" viewBox="0 0 750 420" font-family="system-ui, -apple-system, sans-serif">
  <rect width="750" height="420" fill="#ffffff" rx="12"/>
  <text x="315" y="30" text-anchor="middle" font-size="18" font-weight="bold" fill="#111827">Adoção e Sentimento sobre IA entre Devs</text>
  <text x="315" y="50" text-anchor="middle" font-size="12" fill="#6b7280">Stack Overflow Developer Survey (n=49.000+)</text>
  <line x1="60" y1="360" x2="570" y2="360" stroke="#e5e7eb" stroke-dasharray="4,4"/><text x="50" y="364" text-anchor="end" font-size="11" fill="#9ca3af">0%</text><line x1="60" y1="302" x2="570" y2="302" stroke="#e5e7eb" stroke-dasharray="4,4"/><text x="50" y="306" text-anchor="end" font-size="11" fill="#9ca3af">20%</text><line x1="60" y1="244" x2="570" y2="244" stroke="#e5e7eb" stroke-dasharray="4,4"/><text x="50" y="248" text-anchor="end" font-size="11" fill="#9ca3af">40%</text><line x1="60" y1="186" x2="570" y2="186" stroke="#e5e7eb" stroke-dasharray="4,4"/><text x="50" y="190" text-anchor="end" font-size="11" fill="#9ca3af">60%</text><line x1="60" y1="128" x2="570" y2="128" stroke="#e5e7eb" stroke-dasharray="4,4"/><text x="50" y="132" text-anchor="end" font-size="11" fill="#9ca3af">80%</text><line x1="60" y1="70" x2="570" y2="70" stroke="#e5e7eb" stroke-dasharray="4,4"/><text x="50" y="74" text-anchor="end" font-size="11" fill="#9ca3af">100%</text>
  <text x="60" y="385" text-anchor="middle" font-size="13" font-weight="600" fill="#374151">2023</text><text x="315" y="385" text-anchor="middle" font-size="13" font-weight="600" fill="#374151">2024</text><text x="570" y="385" text-anchor="middle" font-size="13" font-weight="600" fill="#374151">2025</text>
  <path d="M315,139.6 L570,116.4" fill="none" stroke="#3b82f6" stroke-width="3" stroke-linecap="round"/><circle cx="315" cy="139.6" r="5" fill="#3b82f6" stroke="white" stroke-width="2"/><text x="315" y="127.6" text-anchor="middle" font-size="12" font-weight="bold" fill="#3b82f6">76%</text><circle cx="570" cy="116.4" r="5" fill="#3b82f6" stroke="white" stroke-width="2"/><text x="570" y="104.4" text-anchor="middle" font-size="12" font-weight="bold" fill="#3b82f6">84%</text><path d="M60,151.2 L315,151.2 L570,186" fill="none" stroke="#22c55e" stroke-width="3" stroke-linecap="round"/><circle cx="60" cy="151.2" r="5" fill="#22c55e" stroke="white" stroke-width="2"/><text x="60" y="139.2" text-anchor="middle" font-size="12" font-weight="bold" fill="#22c55e">72%</text><circle cx="315" cy="151.2" r="5" fill="#22c55e" stroke="white" stroke-width="2"/><text x="315" y="139.2" text-anchor="middle" font-size="12" font-weight="bold" fill="#22c55e">72%</text><circle cx="570" cy="186" r="5" fill="#22c55e" stroke="white" stroke-width="2"/><text x="570" y="174" text-anchor="middle" font-size="12" font-weight="bold" fill="#22c55e">60%</text><circle cx="570" cy="212.1" r="5" fill="#8b5cf6" stroke="white" stroke-width="2"/><text x="570" y="200.1" text-anchor="middle" font-size="12" font-weight="bold" fill="#8b5cf6">51%</text><circle cx="570" cy="226.60000000000002" r="5" fill="#ef4444" stroke="white" stroke-width="2"/><text x="570" y="214.60000000000002" text-anchor="middle" font-size="12" font-weight="bold" fill="#ef4444">46%</text>
  <rect x="590" y="72" width="14" height="14" rx="3" fill="#3b82f6"/><text x="610" y="84" font-size="11" fill="#374151">Usando/planejando IA</text><rect x="590" y="96" width="14" height="14" rx="3" fill="#22c55e"/><text x="610" y="108" font-size="11" fill="#374151">Sentimento positivo</text><rect x="590" y="120" width="14" height="14" rx="3" fill="#8b5cf6"/><text x="610" y="132" font-size="11" fill="#374151">Uso diário</text><rect x="590" y="144" width="14" height="14" rx="3" fill="#ef4444"/><text x="610" y="156" font-size="11" fill="#374151">Não confia nos resultados</text>
</svg>