<svg xmlns="http://www.w3.org/2000/svg" viewBox="0 0 700 380" font-family="system-ui, -apple-system, sans-serif">
  <rect width="700" height="380" fill="#ffffff" rx="12"/>
  <text x="350" y="30" text-anchor="middle" font-size="18" font-weight="bold" fill="#111827">Taxa de Falha de Segurança em Código Gerado por IA</text>
  <text x="350" y="50" text-anchor="middle" font-size="12" fill="#6b7280">Veracode GenAI Code Security Report 2025 — >100 LLMs testados</text>
  <rect x="120" y="70" width="520" height="50" fill="#f3f4f6" rx="6"/><rect x="120" y="70" width="374.4" height="50" fill="#ef4444" rx="6" opacity="0.85"/><text x="105" y="100" text-anchor="end" font-size="15" font-weight="600" fill="#374151">Java</text><text x="504.4" y="100" font-size="15" font-weight="bold" fill="#ef4444">72%</text><rect x="120" y="140" width="520" height="50" fill="#f3f4f6" rx="6"/><rect x="120" y="140" width="218.4" height="50" fill="#f59e0b" rx="6" opacity="0.85"/><text x="105" y="170" text-anchor="end" font-size="15" font-weight="600" fill="#374151">Python</text><text x="348.4" y="170" font-size="15" font-weight="bold" fill="#f59e0b">42%</text><rect x="120" y="210" width="520" height="50" fill="#f3f4f6" rx="6"/><rect x="120" y="210" width="218.4" height="50" fill="#f59e0b" rx="6" opacity="0.85"/><text x="105" y="240" text-anchor="end" font-size="15" font-weight="600" fill="#374151">C#</text><text x="348.4" y="240" font-size="15" font-weight="bold" fill="#f59e0b">42%</text><rect x="120" y="280" width="520" height="50" fill="#f3f4f6" rx="6"/><rect x="120" y="280" width="218.4" height="50" fill="#f59e0b" rx="6" opacity="0.85"/><text x="105" y="310" text-anchor="end" font-size="15" font-weight="600" fill="#374151">JavaScript</text><text x="348.4" y="310" font-size="15" font-weight="bold" fill="#f59e0b">42%</text><line x1="380" y1="65" x2="380" y2="335" stroke="#dc2626" stroke-dasharray="6,4" stroke-width="1.5"/><text x="380" y="58" text-anchor="middle" font-size="10" fill="#dc2626">50%</text>
  <text x="350" y="365" text-anchor="middle" font-size="11" fill="#9ca3af">% de tarefas com vulnerabilidades OWASP Top 10 / CWE</text>
</svg>